<mxfile host="app.diagrams.net" modified="2023-04-28T11:19:03.250Z" agent="Mozilla/5.0 (Windows NT 10.0; Win64; x64) AppleWebKit/537.36 (KHTML, like Gecko) Chrome/112.0.0.0 Safari/537.36" etag="WWWYS48vVJMQFNsu2TnC" version="21.2.3" type="github">
  <diagram id="R2lEEEUBdFMjLlhIrx00" name="Page-1">
    <mxGraphModel dx="717" dy="1123" grid="1" gridSize="10" guides="1" tooltips="1" connect="1" arrows="1" fold="1" page="1" pageScale="1" pageWidth="850" pageHeight="1100" math="0" shadow="0" extFonts="Permanent Marker^https://fonts.googleapis.com/css?family=Permanent+Marker">
      <root>
        <mxCell id="0" />
        <mxCell id="1" parent="0" />
        <mxCell id="9F7bVUmxoHQnPQe239-y-1" value="IES" style="rounded=1;whiteSpace=wrap;html=1;" vertex="1" parent="1">
          <mxGeometry x="570" y="200" width="120" height="40" as="geometry" />
        </mxCell>
        <mxCell id="9F7bVUmxoHQnPQe239-y-10" value="" style="edgeStyle=orthogonalEdgeStyle;rounded=0;orthogonalLoop=1;jettySize=auto;html=1;" edge="1" parent="1" source="9F7bVUmxoHQnPQe239-y-2" target="9F7bVUmxoHQnPQe239-y-9">
          <mxGeometry relative="1" as="geometry" />
        </mxCell>
        <mxCell id="9F7bVUmxoHQnPQe239-y-2" value="departamento" style="rounded=1;whiteSpace=wrap;html=1;" vertex="1" parent="1">
          <mxGeometry x="220" y="200" width="120" height="40" as="geometry" />
        </mxCell>
        <mxCell id="9F7bVUmxoHQnPQe239-y-4" value="formado" style="shape=rhombus;perimeter=rhombusPerimeter;whiteSpace=wrap;html=1;align=center;" vertex="1" parent="1">
          <mxGeometry x="395" y="190" width="120" height="60" as="geometry" />
        </mxCell>
        <mxCell id="9F7bVUmxoHQnPQe239-y-5" value="" style="endArrow=none;html=1;rounded=0;entryX=0;entryY=0.5;entryDx=0;entryDy=0;exitX=1;exitY=0.5;exitDx=0;exitDy=0;" edge="1" parent="1" source="9F7bVUmxoHQnPQe239-y-4" target="9F7bVUmxoHQnPQe239-y-1">
          <mxGeometry relative="1" as="geometry">
            <mxPoint x="470" y="400" as="sourcePoint" />
            <mxPoint x="590" y="400" as="targetPoint" />
          </mxGeometry>
        </mxCell>
        <mxCell id="9F7bVUmxoHQnPQe239-y-6" value="N" style="resizable=0;html=1;whiteSpace=wrap;align=right;verticalAlign=bottom;" connectable="0" vertex="1" parent="9F7bVUmxoHQnPQe239-y-5">
          <mxGeometry x="1" relative="1" as="geometry" />
        </mxCell>
        <mxCell id="9F7bVUmxoHQnPQe239-y-8" value="" style="endArrow=none;html=1;rounded=0;entryX=0;entryY=0.5;entryDx=0;entryDy=0;" edge="1" parent="1" target="9F7bVUmxoHQnPQe239-y-4">
          <mxGeometry relative="1" as="geometry">
            <mxPoint x="340" y="219.29" as="sourcePoint" />
            <mxPoint x="500" y="219.29" as="targetPoint" />
          </mxGeometry>
        </mxCell>
        <mxCell id="9F7bVUmxoHQnPQe239-y-9" value="associada" style="shape=rhombus;perimeter=rhombusPerimeter;whiteSpace=wrap;html=1;align=center;" vertex="1" parent="1">
          <mxGeometry x="220" y="310" width="120" height="60" as="geometry" />
        </mxCell>
        <mxCell id="9F7bVUmxoHQnPQe239-y-11" value="código" style="ellipse;whiteSpace=wrap;html=1;align=center;" vertex="1" parent="1">
          <mxGeometry x="150" y="80" width="100" height="40" as="geometry" />
        </mxCell>
        <mxCell id="9F7bVUmxoHQnPQe239-y-12" value="descrição" style="ellipse;whiteSpace=wrap;html=1;align=center;" vertex="1" parent="1">
          <mxGeometry x="210" y="40" width="100" height="40" as="geometry" />
        </mxCell>
        <mxCell id="9F7bVUmxoHQnPQe239-y-13" value="nome" style="ellipse;whiteSpace=wrap;html=1;align=center;" vertex="1" parent="1">
          <mxGeometry x="270" y="80" width="100" height="40" as="geometry" />
        </mxCell>
        <mxCell id="9F7bVUmxoHQnPQe239-y-19" value="" style="endArrow=none;html=1;rounded=0;entryX=0.5;entryY=1;entryDx=0;entryDy=0;exitX=0.5;exitY=0;exitDx=0;exitDy=0;" edge="1" parent="1" source="9F7bVUmxoHQnPQe239-y-2" target="9F7bVUmxoHQnPQe239-y-13">
          <mxGeometry relative="1" as="geometry">
            <mxPoint x="280" y="190" as="sourcePoint" />
            <mxPoint x="440" y="198.57" as="targetPoint" />
          </mxGeometry>
        </mxCell>
        <mxCell id="9F7bVUmxoHQnPQe239-y-20" value="" style="endArrow=none;html=1;rounded=0;entryX=0.5;entryY=1;entryDx=0;entryDy=0;exitX=0.5;exitY=0;exitDx=0;exitDy=0;" edge="1" parent="1" source="9F7bVUmxoHQnPQe239-y-2" target="9F7bVUmxoHQnPQe239-y-12">
          <mxGeometry relative="1" as="geometry">
            <mxPoint x="235" y="170" as="sourcePoint" />
            <mxPoint x="395" y="170" as="targetPoint" />
          </mxGeometry>
        </mxCell>
        <mxCell id="9F7bVUmxoHQnPQe239-y-21" value="" style="endArrow=none;html=1;rounded=0;entryX=0.5;entryY=0;entryDx=0;entryDy=0;exitX=1;exitY=1;exitDx=0;exitDy=0;" edge="1" parent="1" source="9F7bVUmxoHQnPQe239-y-11" target="9F7bVUmxoHQnPQe239-y-2">
          <mxGeometry relative="1" as="geometry">
            <mxPoint x="200" y="120" as="sourcePoint" />
            <mxPoint x="340" y="160" as="targetPoint" />
          </mxGeometry>
        </mxCell>
        <mxCell id="9F7bVUmxoHQnPQe239-y-22" value="disciplina" style="whiteSpace=wrap;html=1;align=center;rounded=1;" vertex="1" parent="1">
          <mxGeometry x="230" y="440" width="100" height="40" as="geometry" />
        </mxCell>
        <mxCell id="9F7bVUmxoHQnPQe239-y-23" value="" style="endArrow=none;html=1;rounded=0;exitX=0.5;exitY=0;exitDx=0;exitDy=0;entryX=0.5;entryY=1;entryDx=0;entryDy=0;" edge="1" parent="1" source="9F7bVUmxoHQnPQe239-y-22" target="9F7bVUmxoHQnPQe239-y-9">
          <mxGeometry relative="1" as="geometry">
            <mxPoint x="380" y="400" as="sourcePoint" />
            <mxPoint x="540" y="400" as="targetPoint" />
          </mxGeometry>
        </mxCell>
        <mxCell id="9F7bVUmxoHQnPQe239-y-24" value="1" style="resizable=0;html=1;whiteSpace=wrap;align=right;verticalAlign=bottom;" connectable="0" vertex="1" parent="9F7bVUmxoHQnPQe239-y-23">
          <mxGeometry x="1" relative="1" as="geometry" />
        </mxCell>
        <mxCell id="9F7bVUmxoHQnPQe239-y-25" value="código" style="ellipse;whiteSpace=wrap;html=1;align=center;" vertex="1" parent="1">
          <mxGeometry x="100" y="400" width="100" height="40" as="geometry" />
        </mxCell>
        <mxCell id="9F7bVUmxoHQnPQe239-y-26" value="descrição" style="ellipse;whiteSpace=wrap;html=1;align=center;" vertex="1" parent="1">
          <mxGeometry x="50" y="440" width="100" height="40" as="geometry" />
        </mxCell>
        <mxCell id="9F7bVUmxoHQnPQe239-y-27" value="nome" style="ellipse;whiteSpace=wrap;html=1;align=center;" vertex="1" parent="1">
          <mxGeometry x="100" y="480" width="100" height="40" as="geometry" />
        </mxCell>
        <mxCell id="9F7bVUmxoHQnPQe239-y-28" value="" style="endArrow=none;html=1;rounded=0;exitX=1;exitY=0;exitDx=0;exitDy=0;entryX=0;entryY=0.5;entryDx=0;entryDy=0;" edge="1" parent="1" source="9F7bVUmxoHQnPQe239-y-27" target="9F7bVUmxoHQnPQe239-y-22">
          <mxGeometry relative="1" as="geometry">
            <mxPoint x="290" y="400" as="sourcePoint" />
            <mxPoint x="450" y="400" as="targetPoint" />
          </mxGeometry>
        </mxCell>
        <mxCell id="9F7bVUmxoHQnPQe239-y-29" value="" style="endArrow=none;html=1;rounded=0;exitX=1;exitY=0.5;exitDx=0;exitDy=0;entryX=0;entryY=0.5;entryDx=0;entryDy=0;" edge="1" parent="1" source="9F7bVUmxoHQnPQe239-y-26" target="9F7bVUmxoHQnPQe239-y-22">
          <mxGeometry relative="1" as="geometry">
            <mxPoint x="290" y="400" as="sourcePoint" />
            <mxPoint x="450" y="400" as="targetPoint" />
          </mxGeometry>
        </mxCell>
        <mxCell id="9F7bVUmxoHQnPQe239-y-30" value="" style="endArrow=none;html=1;rounded=0;exitX=1;exitY=1;exitDx=0;exitDy=0;entryX=0;entryY=0.5;entryDx=0;entryDy=0;" edge="1" parent="1" source="9F7bVUmxoHQnPQe239-y-25" target="9F7bVUmxoHQnPQe239-y-22">
          <mxGeometry relative="1" as="geometry">
            <mxPoint x="290" y="400" as="sourcePoint" />
            <mxPoint x="450" y="400" as="targetPoint" />
          </mxGeometry>
        </mxCell>
        <mxCell id="9F7bVUmxoHQnPQe239-y-35" value="pré-requisitos" style="ellipse;whiteSpace=wrap;html=1;align=center;" vertex="1" parent="1">
          <mxGeometry x="50" y="520" width="100" height="40" as="geometry" />
        </mxCell>
        <mxCell id="9F7bVUmxoHQnPQe239-y-36" value="disciplinas equivalentes" style="ellipse;whiteSpace=wrap;html=1;align=center;" vertex="1" parent="1">
          <mxGeometry x="100" y="560" width="100" height="40" as="geometry" />
        </mxCell>
        <mxCell id="9F7bVUmxoHQnPQe239-y-38" value="" style="endArrow=none;html=1;rounded=0;exitX=1;exitY=0.5;exitDx=0;exitDy=0;entryX=0.25;entryY=1;entryDx=0;entryDy=0;" edge="1" parent="1" source="9F7bVUmxoHQnPQe239-y-35" target="9F7bVUmxoHQnPQe239-y-22">
          <mxGeometry relative="1" as="geometry">
            <mxPoint x="290" y="400" as="sourcePoint" />
            <mxPoint x="450" y="400" as="targetPoint" />
          </mxGeometry>
        </mxCell>
        <mxCell id="9F7bVUmxoHQnPQe239-y-39" value="" style="endArrow=none;html=1;rounded=0;exitX=0.73;exitY=-0.039;exitDx=0;exitDy=0;exitPerimeter=0;entryX=0.25;entryY=1;entryDx=0;entryDy=0;" edge="1" parent="1" source="9F7bVUmxoHQnPQe239-y-36" target="9F7bVUmxoHQnPQe239-y-22">
          <mxGeometry relative="1" as="geometry">
            <mxPoint x="290" y="400" as="sourcePoint" />
            <mxPoint x="450" y="400" as="targetPoint" />
          </mxGeometry>
        </mxCell>
        <mxCell id="9F7bVUmxoHQnPQe239-y-46" value="associada" style="shape=rhombus;perimeter=rhombusPerimeter;whiteSpace=wrap;html=1;align=center;" vertex="1" parent="1">
          <mxGeometry x="400" y="430" width="120" height="60" as="geometry" />
        </mxCell>
        <mxCell id="9F7bVUmxoHQnPQe239-y-47" value="" style="endArrow=none;html=1;rounded=0;exitX=1;exitY=0.5;exitDx=0;exitDy=0;entryX=0;entryY=0.5;entryDx=0;entryDy=0;" edge="1" parent="1" source="9F7bVUmxoHQnPQe239-y-22" target="9F7bVUmxoHQnPQe239-y-46">
          <mxGeometry relative="1" as="geometry">
            <mxPoint x="290" y="390" as="sourcePoint" />
            <mxPoint x="450" y="390" as="targetPoint" />
          </mxGeometry>
        </mxCell>
        <mxCell id="9F7bVUmxoHQnPQe239-y-48" value="1" style="resizable=0;html=1;whiteSpace=wrap;align=right;verticalAlign=bottom;" connectable="0" vertex="1" parent="9F7bVUmxoHQnPQe239-y-47">
          <mxGeometry x="1" relative="1" as="geometry" />
        </mxCell>
        <mxCell id="9F7bVUmxoHQnPQe239-y-49" value="curso" style="rounded=1;arcSize=10;whiteSpace=wrap;html=1;align=center;" vertex="1" parent="1">
          <mxGeometry x="570" y="440" width="100" height="40" as="geometry" />
        </mxCell>
        <mxCell id="9F7bVUmxoHQnPQe239-y-50" value="" style="endArrow=none;html=1;rounded=0;exitX=1;exitY=0.5;exitDx=0;exitDy=0;entryX=0;entryY=0.5;entryDx=0;entryDy=0;" edge="1" parent="1" source="9F7bVUmxoHQnPQe239-y-46" target="9F7bVUmxoHQnPQe239-y-49">
          <mxGeometry relative="1" as="geometry">
            <mxPoint x="290" y="390" as="sourcePoint" />
            <mxPoint x="450" y="390" as="targetPoint" />
          </mxGeometry>
        </mxCell>
        <mxCell id="9F7bVUmxoHQnPQe239-y-51" value="1" style="resizable=0;html=1;whiteSpace=wrap;align=right;verticalAlign=bottom;" connectable="0" vertex="1" parent="9F7bVUmxoHQnPQe239-y-50">
          <mxGeometry x="1" relative="1" as="geometry" />
        </mxCell>
        <mxCell id="9F7bVUmxoHQnPQe239-y-52" value="código" style="ellipse;whiteSpace=wrap;html=1;align=center;" vertex="1" parent="1">
          <mxGeometry x="690" y="330" width="100" height="40" as="geometry" />
        </mxCell>
        <mxCell id="9F7bVUmxoHQnPQe239-y-53" value="denominação" style="ellipse;whiteSpace=wrap;html=1;align=center;" vertex="1" parent="1">
          <mxGeometry x="710" y="380" width="100" height="40" as="geometry" />
        </mxCell>
        <mxCell id="9F7bVUmxoHQnPQe239-y-54" value="" style="endArrow=none;html=1;rounded=0;exitX=1;exitY=0.25;exitDx=0;exitDy=0;entryX=0;entryY=1;entryDx=0;entryDy=0;" edge="1" parent="1" source="9F7bVUmxoHQnPQe239-y-49" target="9F7bVUmxoHQnPQe239-y-52">
          <mxGeometry relative="1" as="geometry">
            <mxPoint x="580" y="390" as="sourcePoint" />
            <mxPoint x="740" y="390" as="targetPoint" />
          </mxGeometry>
        </mxCell>
        <mxCell id="9F7bVUmxoHQnPQe239-y-55" value="" style="endArrow=none;html=1;rounded=0;exitX=1;exitY=0.5;exitDx=0;exitDy=0;entryX=0;entryY=0.5;entryDx=0;entryDy=0;" edge="1" parent="1" source="9F7bVUmxoHQnPQe239-y-49" target="9F7bVUmxoHQnPQe239-y-53">
          <mxGeometry relative="1" as="geometry">
            <mxPoint x="580" y="390" as="sourcePoint" />
            <mxPoint x="740" y="390" as="targetPoint" />
          </mxGeometry>
        </mxCell>
        <mxCell id="9F7bVUmxoHQnPQe239-y-56" value="associado" style="shape=rhombus;perimeter=rhombusPerimeter;whiteSpace=wrap;html=1;align=center;" vertex="1" parent="1">
          <mxGeometry x="560" y="530" width="120" height="60" as="geometry" />
        </mxCell>
        <mxCell id="9F7bVUmxoHQnPQe239-y-57" value="" style="endArrow=none;html=1;rounded=0;exitX=0.5;exitY=1;exitDx=0;exitDy=0;entryX=0.5;entryY=0;entryDx=0;entryDy=0;" edge="1" parent="1" source="9F7bVUmxoHQnPQe239-y-49" target="9F7bVUmxoHQnPQe239-y-56">
          <mxGeometry relative="1" as="geometry">
            <mxPoint x="580" y="390" as="sourcePoint" />
            <mxPoint x="740" y="390" as="targetPoint" />
          </mxGeometry>
        </mxCell>
        <mxCell id="9F7bVUmxoHQnPQe239-y-58" value="1" style="resizable=0;html=1;whiteSpace=wrap;align=right;verticalAlign=bottom;" connectable="0" vertex="1" parent="9F7bVUmxoHQnPQe239-y-57">
          <mxGeometry x="1" relative="1" as="geometry" />
        </mxCell>
        <mxCell id="9F7bVUmxoHQnPQe239-y-59" value="conjunto de disciplinas" style="whiteSpace=wrap;html=1;align=center;" vertex="1" parent="1">
          <mxGeometry x="570" y="640" width="100" height="40" as="geometry" />
        </mxCell>
        <mxCell id="9F7bVUmxoHQnPQe239-y-60" value="" style="endArrow=none;html=1;rounded=0;exitX=0.5;exitY=1;exitDx=0;exitDy=0;entryX=0.5;entryY=0;entryDx=0;entryDy=0;" edge="1" parent="1" source="9F7bVUmxoHQnPQe239-y-56" target="9F7bVUmxoHQnPQe239-y-59">
          <mxGeometry relative="1" as="geometry">
            <mxPoint x="580" y="380" as="sourcePoint" />
            <mxPoint x="740" y="380" as="targetPoint" />
          </mxGeometry>
        </mxCell>
        <mxCell id="9F7bVUmxoHQnPQe239-y-61" value="professores" style="ellipse;whiteSpace=wrap;html=1;align=center;" vertex="1" parent="1">
          <mxGeometry x="710" y="430" width="100" height="40" as="geometry" />
        </mxCell>
        <mxCell id="9F7bVUmxoHQnPQe239-y-62" value="alunos" style="ellipse;whiteSpace=wrap;html=1;align=center;" vertex="1" parent="1">
          <mxGeometry x="710" y="480" width="100" height="40" as="geometry" />
        </mxCell>
        <mxCell id="9F7bVUmxoHQnPQe239-y-63" value="notas" style="ellipse;whiteSpace=wrap;html=1;align=center;" vertex="1" parent="1">
          <mxGeometry x="700" y="530" width="100" height="40" as="geometry" />
        </mxCell>
        <mxCell id="9F7bVUmxoHQnPQe239-y-64" value="" style="endArrow=none;html=1;rounded=0;entryX=0;entryY=0.5;entryDx=0;entryDy=0;" edge="1" parent="1" target="9F7bVUmxoHQnPQe239-y-61">
          <mxGeometry relative="1" as="geometry">
            <mxPoint x="670" y="460" as="sourcePoint" />
            <mxPoint x="740" y="380" as="targetPoint" />
          </mxGeometry>
        </mxCell>
        <mxCell id="9F7bVUmxoHQnPQe239-y-65" value="" style="endArrow=none;html=1;rounded=0;exitX=1;exitY=0.5;exitDx=0;exitDy=0;entryX=0;entryY=0.5;entryDx=0;entryDy=0;" edge="1" parent="1" source="9F7bVUmxoHQnPQe239-y-49" target="9F7bVUmxoHQnPQe239-y-62">
          <mxGeometry relative="1" as="geometry">
            <mxPoint x="580" y="380" as="sourcePoint" />
            <mxPoint x="740" y="380" as="targetPoint" />
          </mxGeometry>
        </mxCell>
        <mxCell id="9F7bVUmxoHQnPQe239-y-66" value="" style="endArrow=none;html=1;rounded=0;exitX=1;exitY=0.75;exitDx=0;exitDy=0;entryX=0;entryY=0;entryDx=0;entryDy=0;" edge="1" parent="1" source="9F7bVUmxoHQnPQe239-y-49" target="9F7bVUmxoHQnPQe239-y-63">
          <mxGeometry relative="1" as="geometry">
            <mxPoint x="580" y="380" as="sourcePoint" />
            <mxPoint x="740" y="380" as="targetPoint" />
          </mxGeometry>
        </mxCell>
        <mxCell id="9F7bVUmxoHQnPQe239-y-67" value="" style="endArrow=none;html=1;rounded=0;exitX=1;exitY=0.5;exitDx=0;exitDy=0;entryX=0.5;entryY=1;entryDx=0;entryDy=0;" edge="1" parent="1" source="9F7bVUmxoHQnPQe239-y-59" target="9F7bVUmxoHQnPQe239-y-63">
          <mxGeometry relative="1" as="geometry">
            <mxPoint x="580" y="380" as="sourcePoint" />
            <mxPoint x="740" y="380" as="targetPoint" />
          </mxGeometry>
        </mxCell>
      </root>
    </mxGraphModel>
  </diagram>
</mxfile>
